<?xml version="1.0" standalone="no"?>
<!DOCTYPE svg PUBLIC "-//W3C//DTD SVG 20010904//EN"
 "http://www.w3.org/TR/2001/REC-SVG-20010904/DTD/svg10.dtd">
<svg version="1.0" xmlns="http://www.w3.org/2000/svg"
 width="555.000000pt" height="131.000000pt" viewBox="0 0 555.000000 131.000000"
 preserveAspectRatio="xMidYMid meet">

<g transform="translate(0.000000,131.000000) scale(0.100000,-0.100000)"
fill="#000000" stroke="none">
<path d="M0 815 l0 -495 25 0 c16 0 25 -6 25 -15 0 -11 -7 -14 -25 -9 l-26 6
3 -148 3 -149 34 -2 c19 -2 40 2 48 9 10 8 17 8 25 0 7 -7 40 -12 75 -12 48 0
64 4 72 18 10 16 10 16 11 0 0 -16 12 -18 119 -18 110 0 119 1 124 20 4 16 9
18 29 11 12 -5 22 -14 21 -20 -2 -7 15 -11 42 -11 l45 0 0 38 c0 36 0 37 13
12 7 -14 21 -24 30 -24 9 1 17 -4 17 -12 0 -16 46 -19 55 -3 4 5 0 18 -9 28
-16 17 -15 19 6 26 13 4 26 8 31 10 4 1 12 3 17 4 6 0 10 8 10 16 0 8 5 15 10
15 14 0 13 -7 -5 -34 -13 -19 -13 -28 -4 -50 7 -14 20 -26 31 -26 15 0 17 3 8
19 -8 15 -6 24 7 37 11 11 18 13 21 5 2 -6 8 -11 14 -11 6 0 6 6 -2 15 -10 12
-10 18 0 30 7 8 16 15 20 15 11 0 9 -53 -2 -67 -8 -10 -6 -13 6 -13 9 0 16 -7
16 -15 0 -10 10 -15 34 -15 26 0 33 4 32 17 0 10 7 19 17 21 15 3 18 0 12 -17
-6 -20 -4 -21 107 -21 l113 1 -45 23 c-25 13 -64 29 -87 36 -34 11 -43 18 -43
36 0 12 -6 25 -12 27 -7 2 -1 3 15 1 17 -2 27 1 27 10 0 13 -41 36 -65 36 -8
0 -15 5 -15 10 0 6 -9 10 -20 10 -11 0 -19 5 -17 11 1 6 -4 14 -10 16 -7 3
-13 0 -13 -7 0 -7 -6 -8 -19 0 -29 15 -50 12 -28 -4 21 -16 8 -29 -20 -19 -10
3 -33 21 -51 40 l-33 33 31 6 c35 7 35 23 -1 41 -24 13 -24 13 7 13 43 0 57
21 61 93 2 37 11 74 23 94 13 22 18 47 16 77 -2 31 2 47 11 51 8 2 11 9 8 15
-4 6 4 24 17 40 13 16 33 43 46 59 l23 30 -40 11 c-51 13 -57 24 -31 52 11 13
27 31 35 41 23 26 38 20 19 -8 -8 -13 -13 -28 -10 -34 3 -5 0 -11 -6 -14 -11
-4 -11 -7 0 -18 15 -16 111 -15 144 2 32 17 39 30 32 62 -6 27 0 31 37 28 22
-2 33 28 14 35 -8 4 -22 4 -30 0 -9 -3 -15 0 -15 8 0 15 57 42 67 32 4 -3 15
1 25 11 17 15 18 15 18 -9 0 -14 7 -31 16 -38 11 -10 14 -23 9 -50 -6 -36 -6
-36 59 -68 36 -18 68 -37 71 -42 8 -13 48 -13 61 0 10 10 74 -23 74 -39 0 -12
-37 -21 -91 -21 -44 0 -72 13 -118 58 -10 10 -24 11 -45 6 -17 -4 -59 -7 -93
-6 -52 2 -66 -1 -83 -18 -20 -20 -20 -23 -5 -46 8 -13 11 -24 5 -24 -5 0 -20
-11 -32 -25 -12 -14 -31 -25 -43 -25 -12 0 -29 -8 -37 -17 -18 -21 -32 -83
-19 -83 5 0 18 -15 30 -33 11 -17 39 -57 61 -87 57 -78 83 -130 63 -130 -20 0
-93 -62 -93 -79 0 -9 6 -11 18 -5 29 13 86 5 106 -15 22 -23 14 -41 -20 -41
-13 0 -24 -4 -24 -10 0 -5 9 -10 21 -10 33 0 11 -20 -24 -21 -30 -2 -31 -2 -4
-6 15 -2 27 -9 27 -14 0 -6 8 -5 20 1 25 13 40 5 40 -21 0 -11 7 -22 16 -26 9
-3 14 -13 11 -24 -5 -17 2 -19 69 -19 68 0 74 2 74 21 0 12 8 23 19 26 11 3
22 11 25 19 8 21 26 17 26 -6 0 -22 35 -28 43 -7 4 9 6 9 6 -1 1 -8 -9 -22
-21 -33 l-23 -18 33 -1 c24 0 32 4 32 18 0 28 23 54 42 47 21 -8 11 -44 -16
-55 -13 -6 52 -8 164 -7 l185 2 5 29 c7 38 27 44 40 12 12 -33 27 -33 42 -2 9
21 16 24 39 19 31 -6 42 13 14 23 -17 7 -21 34 -5 34 6 0 10 9 10 19 0 10 9
29 19 42 18 23 20 23 27 5 5 -12 2 -23 -9 -30 -14 -11 -14 -13 1 -23 15 -11
14 -12 -5 -12 -13 -1 -23 -3 -23 -6 0 -12 77 -74 91 -75 9 0 19 -9 22 -20 5
-20 10 -20 1666 -20 l1661 0 0 655 0 655 -1604 0 c-1059 0 -1607 -3 -1611 -10
-3 -5 -15 -10 -27 -10 -17 0 -19 -4 -14 -27 4 -16 3 -23 -1 -16 -9 13 -56 33
-79 33 -8 0 -14 -7 -14 -15 0 -8 5 -15 12 -15 6 0 3 -7 -8 -15 -18 -15 -17
-15 15 -13 20 2 36 -2 38 -9 6 -17 -58 -18 -75 -1 -13 13 -62 -4 -62 -22 0
-15 -31 -12 -64 5 -36 19 -61 19 -80 0 -8 -8 -28 -15 -45 -15 -17 0 -31 -4
-31 -8 0 -5 14 -7 30 -4 18 3 30 0 30 -7 0 -6 -5 -11 -11 -11 -6 0 -16 -6 -24
-13 -10 -11 -8 -15 15 -25 15 -7 30 -22 33 -34 5 -19 7 -19 21 -5 9 9 16 20
16 25 0 18 31 22 37 5 5 -13 8 -12 15 8 9 23 10 24 24 5 9 -13 11 -23 4 -30
-12 -12 -13 -36 -2 -36 4 0 16 14 25 30 23 39 34 38 40 -2 3 -18 8 -43 12 -55
9 -27 -6 -30 -29 -7 -20 19 -20 16 0 -32 11 -27 14 -53 9 -89 -6 -52 0 -85 16
-85 5 0 9 7 9 15 0 21 17 19 30 -4 15 -30 13 -71 -5 -71 -8 0 -15 7 -15 16 0
12 -3 14 -13 6 -17 -15 -82 -4 -102 17 -8 9 -31 36 -50 59 l-35 44 7 -34 c3
-18 10 -34 15 -36 4 -2 8 -11 8 -20 0 -9 13 -25 30 -34 26 -15 28 -20 23 -54
-5 -32 -4 -36 10 -31 10 4 17 2 17 -3 0 -6 -7 -10 -15 -10 -8 0 -15 -4 -15
-10 0 -5 -5 -10 -11 -10 -8 0 -8 5 1 15 9 11 9 15 1 15 -6 0 -16 11 -21 25
-11 29 -32 31 -74 10 -15 -8 -35 -15 -42 -15 -8 0 -14 -7 -14 -15 0 -8 8 -15
18 -15 43 0 56 -54 19 -81 -14 -10 -35 -14 -59 -11 l-36 4 -1 146 -1 147 30
33 c16 17 39 32 50 32 21 0 22 1 24 43 2 32 -20 37 -29 6 -7 -22 -42 -39 -62
-32 -9 4 -13 36 -13 114 l0 109 -465 0 -465 0 0 -255 0 -255 -39 0 c-24 0 -41
-5 -44 -14 -8 -21 2 -26 47 -27 l41 0 -48 -13 c-56 -15 -65 -22 -49 -38 9 -9
22 -9 52 -1 l40 10 0 -78 0 -79 -32 0 c-18 -1 -44 -7 -58 -15 -27 -16 -54 -20
-46 -7 2 4 -7 9 -20 10 -14 1 -34 7 -45 12 -21 12 -26 1 -8 -17 13 -13 2 -36
-14 -30 -7 2 -17 -3 -23 -11 -9 -13 -14 -13 -35 1 -23 16 -26 15 -42 -3 -9
-11 -25 -20 -34 -20 -15 1 -14 4 7 22 l25 21 -27 -5 c-24 -4 -26 -3 -17 13 13
26 46 41 69 34 14 -4 20 -2 20 9 0 12 -11 16 -42 17 -33 1 -37 3 -19 8 34 9
51 39 31 54 -22 18 -40 54 -40 80 0 13 -5 28 -12 35 -7 7 -8 15 -1 24 11 15
32 83 35 118 2 17 10 26 25 28 14 2 23 11 25 25 3 20 10 22 83 27 l80 5 -2 59
c-1 33 -7 64 -13 70 -5 5 -10 25 -10 43 0 25 6 36 28 47 15 8 21 15 15 16 -18
0 -16 20 5 39 23 22 42 57 42 79 0 24 35 58 45 42 10 -16 25 -1 25 26 l0 24
-465 0 -465 0 0 -495z m2310 381 c0 -3 -4 -8 -10 -11 -5 -3 -10 -1 -10 4 0 6
5 11 10 11 6 0 10 -2 10 -4z m-30 -33 c41 -18 52 -39 25 -49 -13 -5 -13 -8 0
-27 19 -27 19 -56 1 -63 -7 -3 -16 -25 -19 -49 -6 -43 -36 -114 -49 -115 -10
0 -47 55 -59 89 -8 23 -7 37 6 66 13 25 16 48 11 78 l-7 42 46 -48 c29 -30 52
-46 61 -43 12 5 11 10 -6 28 -12 13 -19 31 -16 40 2 10 -1 18 -8 18 -7 0 -23
11 -36 25 -19 21 -21 25 -7 25 9 0 35 -8 57 -17z m-293 -55 c-3 -8 -6 -5 -6 6
-1 11 2 17 5 13 3 -3 4 -12 1 -19z m-1217 -8 c0 -5 -7 -10 -16 -10 -8 0 -12 5
-9 10 3 6 10 10 16 10 5 0 9 -4 9 -10z m356 -101 c14 -16 15 -23 7 -26 -22 -8
-14 -25 7 -18 16 5 20 2 20 -18 0 -20 -4 -23 -25 -19 -14 2 -25 10 -25 18 0
10 -9 12 -32 7 l-32 -6 23 31 c12 18 18 32 12 32 -6 0 -11 5 -11 10 0 18 36
11 56 -11z m452 -48 c3 -8 -1 -12 -9 -9 -7 2 -15 10 -17 17 -3 8 1 12 9 9 7
-2 15 -10 17 -17z m1268 -57 c38 -18 84 -67 84 -90 0 -24 -30 -16 -56 16 -51
60 -148 64 -203 9 -96 -95 -33 -249 101 -249 41 0 54 5 88 36 24 22 47 34 60
32 20 -3 20 -3 -2 -36 -34 -48 -117 -86 -171 -78 -86 13 -151 80 -163 169 -9
66 30 147 89 182 50 30 121 33 173 9z m274 -142 c0 -122 -3 -162 -15 -178 -34
-50 -145 -58 -145 -11 0 20 4 22 47 18 69 -5 73 4 73 181 0 141 1 148 20 148
19 0 20 -7 20 -158z m112 77 l3 -81 58 81 c46 64 63 81 83 81 29 0 30 2 -41
-95 -28 -38 -55 -76 -59 -83 -4 -7 4 -27 21 -50 16 -20 46 -61 67 -89 l38 -53
-26 0 c-20 0 -37 16 -83 80 l-58 81 -3 -81 c-3 -72 -5 -80 -22 -80 -19 0 -20
8 -20 185 0 177 1 185 20 185 17 0 19 -8 22 -81z m256 13 c3 -16 -2 -22 -17
-22 -26 0 -36 17 -20 36 16 19 33 13 37 -14z m152 -17 c0 -43 1 -45 30 -45 23
0 30 -4 30 -20 0 -16 -7 -20 -30 -20 l-30 0 0 -100 c0 -93 -1 -100 -20 -100
-19 0 -20 7 -20 100 l0 100 -30 0 c-23 0 -30 4 -30 20 0 16 7 20 30 20 29 0
30 2 30 45 0 38 3 45 20 45 17 0 20 -7 20 -45z m180 0 c0 -43 1 -45 30 -45 23
0 30 -4 30 -20 0 -16 -7 -20 -30 -20 l-30 0 0 -100 c0 -93 -1 -100 -20 -100
-19 0 -20 7 -20 100 l0 100 -30 0 c-23 0 -30 4 -30 20 0 16 7 20 30 20 29 0
30 2 30 45 0 38 3 45 20 45 17 0 20 -7 20 -45z m-1526 10 c7 -29 0 -48 -15
-40 -12 8 -12 65 0 65 5 0 12 -11 15 -25z m1814 -73 c28 -18 52 -62 52 -97 l0
-25 -100 0 c-80 0 -100 -3 -100 -14 0 -39 87 -60 126 -31 10 8 29 15 42 15 20
0 21 -3 12 -20 -24 -46 -113 -64 -169 -35 -30 15 -61 69 -61 105 0 32 30 89
53 102 55 29 100 29 145 0z m-618 -102 c0 -113 -1 -120 -20 -120 -19 0 -20 7
-20 120 0 113 1 120 20 120 19 0 20 -7 20 -120z m770 104 c0 -14 2 -14 22 0
36 26 93 21 117 -10 18 -23 21 -41 21 -120 0 -87 -1 -94 -20 -94 -18 0 -20 7
-20 88 0 96 -7 112 -50 112 -46 0 -65 -32 -69 -121 -3 -70 -5 -79 -22 -79 -18
0 -19 9 -19 120 0 113 1 120 20 120 11 0 20 -7 20 -16z m-2120 -99 c-7 -8 -17
-15 -22 -15 -6 0 -5 7 2 15 7 8 17 15 22 15 6 0 5 -7 -2 -15z m-85 -72 c-14
-21 -25 -43 -25 -50 0 -7 -4 -13 -10 -13 -5 0 -10 9 -10 20 0 11 -6 20 -13 20
-8 0 -22 -9 -32 -20 -10 -11 -25 -20 -34 -20 -11 1 -8 7 12 23 15 13 27 30 27
39 0 25 18 31 25 8 9 -27 29 -25 45 5 7 14 20 25 27 25 10 0 6 -11 -12 -37z
m-1585 1 c0 -8 -4 -12 -10 -9 -5 3 -10 10 -10 16 0 5 5 9 10 9 6 0 10 -7 10
-16z m-100 -14 c0 -5 -5 -10 -11 -10 -5 0 -7 5 -4 10 3 6 8 10 11 10 2 0 4 -4
4 -10z m1780 -59 c-12 -17 -26 -29 -31 -25 -6 3 -5 12 3 21 10 12 9 18 -6 28
-16 12 -16 14 11 17 41 5 48 -7 23 -41z m-246 21 c3 -5 -6 -15 -19 -22 -28
-15 -34 -36 -7 -25 64 27 121 23 87 -5 -19 -16 -19 -30 0 -30 9 0 15 -9 15
-25 0 -23 -4 -26 -27 -24 -5 0 -7 7 -5 15 4 21 -15 17 -31 -6 -8 -12 -20 -18
-30 -15 -8 4 -18 2 -22 -4 -16 -27 -25 -5 -25 63 0 63 3 75 18 79 29 8 41 7
46 -1z m-1474 -12 c0 -5 -4 -10 -10 -10 -5 0 -10 5 -10 10 0 6 5 10 10 10 6 0
10 -4 10 -10z m130 -10 c0 -5 -4 -10 -10 -10 -5 0 -10 5 -10 10 0 6 5 10 10
10 6 0 10 -4 10 -10z m1628 -31 c-18 -12 -23 8 -6 28 12 15 13 15 16 -2 2 -10
-2 -21 -10 -26z m52 28 c0 -17 -27 -54 -34 -46 -7 7 16 59 27 59 4 0 7 -6 7
-13z m-1750 -37 c0 -5 -9 -6 -20 -3 -20 5 -25 15 -13 26 7 8 33 -11 33 -23z
m1564 -35 c5 -25 2 -32 -19 -42 -30 -13 -32 -3 -13 59 12 41 21 37 32 -17z
m60 -17 c3 -16 4 -28 2 -28 -16 0 -36 14 -36 26 0 8 -4 14 -10 14 -11 0 -14
43 -4 53 9 9 40 -33 48 -65z m156 27 c0 -8 7 -15 15 -15 8 0 15 -4 15 -10 0
-5 -7 -7 -15 -4 -18 7 -20 -17 -3 -34 8 -8 9 -12 1 -12 -6 0 -21 12 -32 26
-17 21 -18 29 -8 45 14 23 27 25 27 4z m-1740 1 c0 -2 -7 -6 -15 -10 -8 -3
-15 -1 -15 4 0 6 7 10 15 10 8 0 15 -2 15 -4z m-70 -26 c0 -5 -4 -10 -9 -10
-6 0 -13 5 -16 10 -3 6 1 10 9 10 9 0 16 -4 16 -10z m1748 -20 c-2 -8 -10 -15
-18 -15 -8 0 -16 7 -18 15 -2 10 5 16 18 16 13 0 20 -6 18 -16z m-1793 -20 c3
-5 2 -10 -4 -10 -5 0 -13 5 -16 10 -3 6 -2 10 4 10 5 0 13 -4 16 -10z m1648
-20 c-3 -11 0 -20 6 -20 29 0 -4 -77 -37 -85 -27 -7 -42 1 -42 21 0 8 -4 14
-9 14 -5 0 -8 -6 -7 -12 1 -14 -5 -18 -29 -18 -8 0 -15 5 -15 10 0 6 7 10 15
10 32 0 13 19 -22 22 l-38 3 43 28 c28 18 50 26 63 22 10 -4 19 -2 19 4 0 9
19 17 47 20 6 1 9 -7 6 -19z m-649 -6 c12 -31 6 -56 -14 -61 -11 -3 -20 -9
-20 -14 0 -5 -4 -9 -10 -9 -5 0 -10 11 -10 25 0 16 6 25 15 25 8 0 15 4 15 10
0 5 -7 7 -15 4 -15 -6 -21 16 -8 29 12 13 41 7 47 -9z m-970 -9 c3 -8 1 -15
-4 -15 -6 0 -10 7 -10 15 0 8 2 15 4 15 2 0 6 -7 10 -15z m4846 6 c0 -6 -4
-13 -10 -16 -5 -3 -10 1 -10 9 0 9 5 16 10 16 6 0 10 -4 10 -9z m-4425 -11 c3
-5 -1 -10 -9 -10 -9 0 -16 5 -16 10 0 6 4 10 9 10 6 0 13 -4 16 -10z m-346
-13 c-2 -1 -12 -9 -21 -16 -15 -12 -18 -11 -18 3 0 10 8 16 22 16 12 0 19 -1
17 -3z m4716 -7 c3 -5 1 -10 -4 -10 -6 0 -11 5 -11 10 0 6 2 10 4 10 3 0 8 -4
11 -10z m-110 -20 c4 -6 1 -17 -5 -25 -14 -17 -50 -20 -50 -5 0 6 7 10 15 10
8 0 15 7 15 15 0 17 16 20 25 5z m-4665 -10 c0 -5 -4 -10 -10 -10 -5 0 -10 5
-10 10 0 6 5 10 10 10 6 0 10 -4 10 -10z m105 1 c3 -6 -3 -14 -12 -20 -15 -8
-11 -10 21 -11 39 0 39 0 21 -20 l-19 -21 -23 24 c-15 15 -21 29 -17 40 7 19
20 22 29 8z m153 -3 c7 -7 11 -26 11 -43 -2 -27 -2 -27 -6 -5 -6 29 -22 42
-42 35 -11 -5 -12 -3 -1 10 15 18 22 19 38 3z m1535 -25 c4 -19 2 -33 -3 -33
-6 0 -10 17 -10 37 0 43 5 41 13 -4z m-386 8 c3 -12 18 -23 37 -27 17 -4 25
-9 19 -11 -8 -3 -11 -14 -7 -29 7 -29 4 -30 -26 -4 -29 25 -45 12 -29 -23 9
-21 9 -30 -1 -42 -17 -20 -33 -19 -54 4 -22 24 -12 87 15 102 11 5 19 19 19
29 0 26 20 26 27 1z m-1077 -12 c0 -5 -4 -9 -10 -9 -5 0 -10 7 -10 16 0 8 5
12 10 9 6 -3 10 -10 10 -16z m685 1 c4 -7 13 -6 26 1 11 5 41 9 67 7 35 -2 48
-7 50 -20 2 -13 -3 -18 -17 -18 -11 0 -25 -9 -31 -20 -15 -27 -39 -25 -71 6
-42 41 -56 22 -32 -43 7 -18 -39 -16 -63 2 -18 14 -18 16 -1 29 9 7 17 18 17
25 0 6 5 11 10 11 6 0 10 7 10 15 0 17 25 20 35 5z m283 -20 c10 -22 11 -34 2
-50 -14 -26 -40 -22 -51 8 -7 18 -5 24 13 31 14 5 17 10 10 15 -16 10 -15 26
1 26 6 0 18 -13 25 -30z m-1098 11 c0 -5 -7 -11 -14 -14 -10 -4 -13 -1 -9 9 6
15 23 19 23 5z m710 -1 c0 -5 -2 -10 -4 -10 -3 0 -8 5 -11 10 -3 6 -1 10 4 10
6 0 11 -4 11 -10z m-1003 -16 c-3 -3 -12 -4 -19 -1 -8 3 -5 6 6 6 11 1 17 -2
13 -5z m1790 -16 c-3 -8 -6 -5 -6 6 -1 11 2 17 5 13 3 -3 4 -12 1 -19z m3113
18 c0 -2 -7 -6 -15 -10 -8 -3 -15 -1 -15 4 0 6 7 10 15 10 8 0 15 -2 15 -4z
m-4438 -66 l23 -9 -25 0 c-27 -1 -55 32 -44 51 5 7 10 3 15 -11 5 -12 19 -26
31 -31z m820 28 c-7 -7 -12 -8 -12 -2 0 14 12 26 19 19 2 -3 -1 -11 -7 -17z
m-1567 -2 c17 -17 7 -30 -12 -15 -13 12 -18 29 -7 29 3 0 12 -6 19 -14z m4935
4 c0 -5 -9 -10 -21 -10 -11 0 -17 5 -14 10 3 6 13 10 21 10 8 0 14 -4 14 -10z
m273 -19 c-32 -20 -93 -35 -93 -23 0 17 26 32 56 32 18 0 36 5 39 10 4 6 11 8
17 4 5 -3 -3 -14 -19 -23z m-4713 -5 c0 -23 -22 -31 -32 -11 -8 14 -12 15 -18
4 -10 -14 -60 -24 -60 -11 0 19 27 32 67 32 31 0 43 -4 43 -14z m4380 4 c0 -5
12 -10 26 -10 14 0 23 -4 19 -10 -3 -6 -18 -7 -33 -4 -36 9 -43 14 -37 25 8
12 25 12 25 -1z m-4913 -16 c-3 -3 -12 -4 -19 -1 -8 3 -5 6 6 6 11 1 17 -2 13
-5z m628 -14 c3 -5 -3 -10 -14 -10 -12 0 -21 5 -21 10 0 6 6 10 14 10 8 0 18
-4 21 -10z m4245 1 c0 -12 -20 -25 -27 -18 -7 7 6 27 18 27 5 0 9 -4 9 -9z
m-4743 -26 c-18 -17 -37 -20 -37 -5 0 10 41 31 49 24 2 -2 -4 -10 -12 -19z
m621 8 c2 -8 -6 -13 -22 -13 -25 0 -33 10 -19 24 10 10 36 3 41 -11z m627 -8
l40 -14 -32 -7 c-27 -5 -32 -10 -27 -28 3 -12 1 -32 -3 -44 l-9 -23 -18 20
c-16 17 -17 23 -6 36 10 12 10 19 2 27 -16 16 -15 48 1 48 6 0 30 -7 52 -15z
m783 6 c10 -6 7 -10 -12 -13 -18 -4 -26 -1 -26 8 0 16 18 18 38 5z m2872 -11
c11 -7 3 -10 -28 -10 -26 0 -41 4 -37 10 8 13 45 13 65 0z m-3420 -26 c0 -22
-2 -25 -15 -14 -12 10 -13 16 -4 26 16 20 19 18 19 -12z m90 1 c0 -32 -6 -32
-12 0 -3 14 -1 25 3 25 5 0 9 -11 9 -25z m167 19 c-3 -3 -12 -4 -19 -1 -8 3
-5 6 6 6 11 1 17 -2 13 -5z m-1610 -31 c13 -37 25 -44 39 -26 10 13 13 14 14
4 0 -7 -12 -25 -27 -39 l-27 -25 -23 29 c-26 33 -28 45 -11 62 17 17 28 15 35
-5z m5013 7 c0 -5 -4 -10 -9 -10 -6 0 -13 5 -16 10 -3 6 1 10 9 10 9 0 16 -4
16 -10z m-5273 -6 c-3 -3 -12 -4 -19 -1 -8 3 -5 6 6 6 11 1 17 -2 13 -5z
m1834 -14 c4 0 6 -7 3 -15 -4 -8 -15 -15 -26 -15 -16 0 -18 3 -9 14 7 8 8 16
4 18 -4 3 -2 3 5 1 8 -1 18 -3 23 -3z m-426 -10 c-8 -13 -35 -13 -35 0 0 6 9
10 21 10 11 0 17 -4 14 -10z m-1270 -10 c3 -5 -1 -10 -10 -10 -9 0 -13 5 -10
10 3 6 8 10 10 10 2 0 7 -4 10 -10z m42 -42 c-3 -7 -5 -2 -5 12 0 14 2 19 5
13 2 -7 2 -19 0 -25z m230 0 c-3 -7 -5 -2 -5 12 0 14 2 19 5 13 2 -7 2 -19 0
-25z m147 16 c22 -9 20 -24 -3 -24 -21 0 -34 13 -24 24 8 7 8 7 27 0z m1206
-10 c0 -9 -5 -14 -12 -12 -18 6 -21 28 -4 28 9 0 16 -7 16 -16z"/>
<path d="M3980 720 c-34 -34 -24 -40 60 -40 77 0 80 1 70 20 -23 43 -96 54
-130 20z"/>
<path d="M1378 123 c7 -3 16 -2 19 1 4 3 -2 6 -13 5 -11 0 -14 -3 -6 -6z"/>
<path d="M1987 926 c32 -40 53 -52 53 -31 0 18 -50 65 -68 65 -9 0 -3 -13 15
-34z"/>
<path d="M1870 675 c0 -8 5 -15 10 -15 6 0 10 7 10 15 0 8 -4 15 -10 15 -5 0
-10 -7 -10 -15z"/>
<path d="M636 506 c7 -17 44 -22 44 -6 0 6 -4 10 -9 10 -5 0 -17 3 -25 6 -12
5 -15 2 -10 -10z"/>
<path d="M660 465 c-17 -20 9 -21 36 0 19 14 19 14 -2 15 -12 0 -27 -7 -34
-15z"/>
<path d="M645 410 c3 -5 11 -10 16 -10 6 0 7 5 4 10 -3 6 -11 10 -16 10 -6 0
-7 -4 -4 -10z"/>
<path d="M1103 273 c9 -2 25 -2 35 0 9 3 1 5 -18 5 -19 0 -27 -2 -17 -5z"/>
<path d="M1038 243 c7 -3 16 -2 19 1 4 3 -2 6 -13 5 -11 0 -14 -3 -6 -6z"/>
<path d="M2069 9 c-10 -6 -7 -9 14 -9 29 0 35 5 14 13 -8 3 -20 1 -28 -4z"/>
</g>
</svg>
